<svg xmlns:dc="http://purl.org/dc/elements/1.1/" xmlns:cc="http://creativecommons.org/ns#" xmlns:rdf="http://www.w3.org/1999/02/22-rdf-syntax-ns#" xmlns:svg="http://www.w3.org/2000/svg" xmlns="http://www.w3.org/2000/svg" xmlns:sodipodi="http://sodipodi.sourceforge.net/DTD/sodipodi-0.dtd" xmlns:inkscape="http://www.inkscape.org/namespaces/inkscape" version="1" width="1200" height="1200" viewBox="0 0 1200 1200" preserveAspectRatio="xMidYMid meet" id="svg2" inkscape:version="0.91" sodipodi:docname="spot(3).svg">
  <defs id="defs46"/>
  <sodipodi:namedview pagecolor="#ffffff" bordercolor="#666666" borderopacity="1" objecttolerance="10" gridtolerance="10" guidetolerance="10" inkscape:pageopacity="0" inkscape:pageshadow="2" inkscape:window-width="1366" inkscape:window-height="716" id="namedview44" showgrid="false" inkscape:zoom="0.16" inkscape:cx="750" inkscape:cy="750" inkscape:window-x="-8" inkscape:window-y="-8" inkscape:window-maximized="1" inkscape:current-layer="svg2"/>
  <metadata id="metadata4">
    
Created by potrace 1.13, written by Peter Selinger 2001-2015

    <rdf:RDF>
      <cc:Work rdf:about="">
        <dc:format>
          image/svg+xml
        </dc:format>
        <dc:type rdf:resource="http://purl.org/dc/dcmitype/StillImage"/>
      </cc:Work>
    </rdf:RDF>
  </metadata>
  <g transform="translate(0.000000,1200.000000) scale(0.100000,-0.100000)" fill="#000000" stroke="none" id="g6">
    <path d="m1838 11384c-506.88 172.96-744-672.42-309-839 448.27-192.22 861.74 540.58 416 801-35.41 6.83-66.14 61.06-107 38z" id="path8" inkscape:connector-curvature="0"/>
    <path d="m5860 9135c-376.24-204.56 409.18-405.04 132-25l-64.87 32.75L5860 9135Z" id="path10" inkscape:connector-curvature="0"/>
    <path d="m3522 9038c-234.13-542.24 459.18-13.81 0 0z" id="path12" inkscape:connector-curvature="0"/>
    <path d="m5230 8620c-606.17 65.92-540.65-691.71-795-1025 4.49-348.18 161.73-687.73 502-813 369.29-158.21 947.93-210.47 1103 263-11.91 410.74 633.82 282.77 562.13 740.75 58.54 425.62-1205.01 668.74-817.62 687.5-151.64 98.36-375.1 130.99-554.5 146.75z" id="path14" inkscape:connector-curvature="0"/>
    <path d="m8888 7557c-151.09-392.09 428.42-17.42 0 0z" id="path16" inkscape:connector-curvature="0"/>
    <path d="m6750 7393c-466.28-1.85-520.1-678.53-206.37-910.75 285.55-384.76 901.71-1.58 776.28 428.45C7260.57 7163.95 7006.13 7376.25 6750 7393Z" id="path18" inkscape:connector-curvature="0"/>
    <path d="m8015 6490c-447.62-3.98-688.82-535.79-551-918 369.36-277.6 863.84-118.34 1172 173 145.92 96.31 698.78 69.4 279 247-350.5 31.51-508.77 517.72-900 498z" id="path20" inkscape:connector-curvature="0"/>
    <path d="m6380 5880c-25.82-282.36 351.33-19.55 0 0z" id="path22" inkscape:connector-curvature="0"/>
    <path d="M8445 5401C7999.85 5285.56 8160.34 4642.84 8534.88 4510.38 8755.06 4138.17 9695.13 3640.62 9460 3913c136.04-225.88 509.09-493.2 102-566-218.37-261.11 605.83-782.55 279.36-717.23C9914.13 2398.82 11024.88 2253.71 10430 2444c150.21-270.83 119.27 223.43 327-56 143.38-153.47 535.22-554.56 271-108-342.48-240.65 11.14 3000.71-160 963-261.63 362.96-165.44 320.08-327.12 307 56.27 280.07-361.11 479.78-120.87 754 72.4 312.59-870.72 399.97-589 534-228.93 464.07-1291.06 524.63-862.75 411.88C8741.34 5051.8 8693.47 5441.17 8445 5401Z" id="path24" inkscape:connector-curvature="0"/>
    <path d="m5639 4984c-422.05-373.38 520.56-456.9 153-10l-65.62 24.13L5639 4984Z" id="path26" inkscape:connector-curvature="0"/>
    <path d="m5620 3950c-349.12-26.11 59.17-528.56 135.13-155.25-47.93 41.64-36.64 185.84-135.12 155.25z" id="path28" inkscape:connector-curvature="0"/>
    <path d="m5103 3074c-291.53-278.99 444.83-199.88 0 0z" id="path30" inkscape:connector-curvature="0"/>
    <path d="m6176 2923c-233.87-176.79 257.34-297.6 14.55 5.17L6176 2923Z" id="path32" inkscape:connector-curvature="0"/>
    <path d="m8594 2785c-66.11-368.91 347.22-6.73 0 0z" id="path34" inkscape:connector-curvature="0"/>
    <path d="m6432 2747c-26.02-369.46 277.63-91.56 0 0z" id="path36" inkscape:connector-curvature="0"/>
    <path d="m3956 2685c-110.84-316.85 364.21-282.39 89-84-38.7 13.69-24.81 137.71-89 84z" id="path38" inkscape:connector-curvature="0"/>
    <path d="m5500 2513c-185.17-170.03 75.9-464.81 199.38-187-36.94 77.16-91.26 208.82-199.37 187z" id="path40" inkscape:connector-curvature="0"/>
    <path d="m4056 2147c-117.07-326.26 314.55 34.13 0 0z" id="path42" inkscape:connector-curvature="0"/>
  </g>
</svg>
