<svg xmlns:dc="http://purl.org/dc/elements/1.1/" xmlns:cc="http://creativecommons.org/ns#" xmlns:rdf="http://www.w3.org/1999/02/22-rdf-syntax-ns#" xmlns:svg="http://www.w3.org/2000/svg" xmlns="http://www.w3.org/2000/svg" xmlns:sodipodi="http://sodipodi.sourceforge.net/DTD/sodipodi-0.dtd" xmlns:inkscape="http://www.inkscape.org/namespaces/inkscape" version="1" width="1000" height="1000" viewBox="0 0 1000 1000" preserveAspectRatio="xMidYMid meet" id="svg4136" inkscape:version="0.91" sodipodi:docname="spot(2).svg"><defs id="defs4190"/><sodipodi:namedview pagecolor="#ffffff" bordercolor="#666666" borderopacity="1" objecttolerance="10" gridtolerance="10" guidetolerance="10" inkscape:pageopacity="0" inkscape:pageshadow="2" inkscape:window-width="1366" inkscape:window-height="716" id="namedview4188" showgrid="false" inkscape:zoom="0.44" inkscape:cx="625" inkscape:cy="625" inkscape:window-x="-8" inkscape:window-y="-8" inkscape:window-maximized="1" inkscape:current-layer="g4140"/><metadata id="metadata4138">Created by potrace 1.13, written by Peter Selinger 2001-2015<rdf:RDF><cc:Work rdf:about=""><dc:format>image/svg+xml</dc:format><dc:type rdf:resource="http://purl.org/dc/dcmitype/StillImage"/></cc:Work></rdf:RDF></metadata><g transform="translate(0.000000,1000.000000) scale(0.100000,-0.100000)" fill="#000000" stroke="none" id="g4140"><path d="m2390 8659c80.06-135 284.17-435.32 357-479-115.15 146.47-241.22 408.58-357 479z" id="path4142" inkscape:connector-curvature="0"/><path d="m5977 7233c24.01-230.33 222.71-855.27 138-779-41.21 237.31-62.1 576.12-138 779z" id="path4144" inkscape:connector-curvature="0"/><path d="m4910 7118c64.67-127.36 169.44-467.86 247.38-517.87C5059.89 6743.27 5012.6 7058.18 4910 7118Z" id="path4146" inkscape:connector-curvature="0"/><path d="m3308 6564c40.4-166.41 345.2-371.26 137-108-20.72 53.19-66.51 134.06-137 108z" id="path4148" inkscape:connector-curvature="0"/><path d="m6328 6518c22.21-144.18 44.5-427.68 25-523-179.08 172.83 134.31-398.32 163-439 4.43 326.52-97.27 647.03-133 956l-20.37 15.75L6328 6518Z" id="path4150" inkscape:connector-curvature="0"/><path d="m3573 6283c3.31-175.52 368.81-347.66 97-61-19.11 20.87-62.21 57.1-97 61z" id="path4152" inkscape:connector-curvature="0"/><path d="m4241 6277c75.02-269.04 272.82-512.35 429-761 211.04-300.73 227.98-229.82 18.2 43.48C4506.14 5776.76 4401.99 6079.87 4241 6277Z" id="path4154" inkscape:connector-curvature="0"/><path d="m5300 6227c20.29-179.97 376.67-739.7 173.25-317.5-77.19 85.53-90.85 279.52-173.25 317.5z" id="path4156" inkscape:connector-curvature="0"/><path d="m6154 6175c-84.66-159.09 101.57-474.94 89.25-621.37 143.14 124.71-32.47 531.23-89.25 621.38z" id="path4158" inkscape:connector-curvature="0"/><path d="m7260 5781c-17.18-333.98-170.6-693.48-141-1001 141.6 273.12 30.23-268.2 238.88-30.87 41.75-85.43 130.49-466.35 107.13-129.12-105.92 238.61-0.12 963.49-58.65 729.17C7286.75 5773.48 7138.07 5151.35 7238 5056c-76.02 216.16 190.03 638.38 22 725z" id="path4160" inkscape:connector-curvature="0"/><path d="m6624 5325c73.76-263.96-5.18-683.05-313-645-184.78-195.48-249.06 509.34-268 105-80.68 103.74-270.74 542.03-274 186-157.55-561.43 103.9 386.84-229-326-188.55-202.26-649.3 417.23-600 165-47.8 31.44-276.11 244.04-400 395 196.69-146.51-142.06-606.26 100.13-575-257.21 135.83 160.86-259.61-5.12-98-151.93-193.33-722.76 306.01-621.81-141.77C4119.42 4137.77 4666.05 4262.88 4564.25 3888.5 4716.11 3528.57 4181.45 3093.37 4237 3290c189.06-215.8-367.92-121.68-117-169-260.83-140.08-89.98-823.48-177-588-107.19-55.01-452.43-46.54-179.62-180.5 295.83-51.78 213.43-261.68 485.63-78.5-23.11-81.79 1248.21-1206.28 400.5-327.78C4645.23 1744.35 4119.83 1148.65 4195 1360c-213.88 42.33-426.34-331.48-136-257 205.3 199.09 499.16 159.16 741 262 231.2 140.27 361.36 13.9 621.13 41.5 96.85-139.98-231.63-376.75 69.25-177.5 173.73-165.38 302.72 194.55 477.63-59 142.2-99.11 389.89 51.04 272-55 285.03-210.62 162.58 366.74 444.17 199.47 100.32 137.87 376.8-176.99 344.58 164.91 280.17 370.4-28.79-490.24 379.25-419.37 257.94-112.97 506.61 292.06 300.88 494.13-30.05 123.86-313.38 234.28-270.87 147.25-147.32-215.63-98.37 213.85 57 58.63 52.78 186.7 531.18 161.48 335 211 11.16 290.55 349.99 139.52 144.59-123.8-89.78-270.96 412.27-650.47 380.2-561.06C8466.2 1171.82 9118.78 1172.42 8915 1210c249.66 209.12 549.24 526.29 449 911-98.5 199.58-135.86 593.2-364.25 353.5-176.88 69.46-586.99-64.84-440.75 62.38-139.61 296.43-360.37-151.25-308.25-37 127.24 129.55-212.23 153.54 10.25 237.13-41.21 229.29-519.4-68.48-272 260 19.25 311.44-90.1 600.1-175.25 863.75-181.03 41.6-26.91 217.9-242.75 165.55-81.77 224.82-614.46 371.96-448.98 271.06 51.21 295.34-32.52 334.27-197.02 132.64-137.56 30.48-29.49 248.24-25 293-115.51 116.49-32.61 646.36-92.45 225.29-83.31-242.14-74.39-777.8-121.55 66.71-63.49 72.04 92.25 383.85-62 310zM7980 2470c45.74-42.28-80.18-283.6 19-187-86.05-0.31-112.2 261.06-19 187z" id="path4162" inkscape:connector-curvature="0" sodipodi:nodetypes="ccccccccccccccccccccccccccccccccccccccccccccccccccc"/><path d="M8770 4913C8576.32 4620.46 8235.51 4449.8 8034.94 4184.95 8257.73 4412.26 8491.64 4426.55 8650 4695c51.78 20.52 343.13 373.48 120 218z" id="path4164" inkscape:connector-curvature="0"/><path d="m7645 4619c-43.19-138.7-272.39-546.48-47.58-231.2-4.15 22.57 160.09 343.14 47.58 231.2z" id="path4166" inkscape:connector-curvature="0"/><path d="m2510 4630c241.63-160.25 495.03-297.59 750-430-201.89 152.8-933.13 488.6-671 398.38-23.14-13.9-59.45 68.6-79 31.63z" id="path4168" inkscape:connector-curvature="0"/><path d="m9467 4577c-168-222.27-706.45-789.85-639.25-567.25 214.9 190.23 803.63 797.68 678.75 590.25l-39.5-23z" id="path4170" inkscape:connector-curvature="0"/><path d="m9650 3493c-204.98-117.44-831.62-379.53-678.25-245.37 245.79 50.53 607.18 201.72 669.25 141.38-163.55-146.63 283.12 130.67 9 104z" id="path4172" inkscape:connector-curvature="0"/><path d="m9310 2985c-203.82 24.29-327.82-234.12-45-70 109.56 41.01 252.06 115.8 45 70z" id="path4174" inkscape:connector-curvature="0"/><path d="m2807 2754c-213.93-0.92-441.49-47.61-110.71-55.81 213.27-36.43 565.87 67.3 140.83 60.94L2807 2754Z" id="path4176" inkscape:connector-curvature="0"/><path d="m4227 1690c-161.51-58.99-748.74-467.53-302-250 71.03-32.79 489.88 327.04 302 250z" id="path4178" inkscape:connector-curvature="0"/><path d="m7046 1083c-448.25-22.97 80.28-628.97 160-187 25.81 93.87-62.69 202.39-160 187z" id="path4180" inkscape:connector-curvature="0"/><path d="m5765 970c-469.95-125.27 312.57-439.26 75-20-32.01 1.94-32.87 61.93-75 20z" id="path4182" inkscape:connector-curvature="0"/><path d="m7788 749c-17.99-236.96 38.53 262.18 93 11-32.72-3.07-71.75 48.89-93-11z" id="path4184" inkscape:connector-curvature="0"/><path d="m5409 357c-220.69-361.96 473.92-197.11 131 20-38.48 27.91-107.71 31.34-131-20z" id="path4186" inkscape:connector-curvature="0"/></g></svg>