<svg xmlns:dc="http://purl.org/dc/elements/1.1/" xmlns:cc="http://creativecommons.org/ns#" xmlns:rdf="http://www.w3.org/1999/02/22-rdf-syntax-ns#" xmlns:svg="http://www.w3.org/2000/svg" xmlns="http://www.w3.org/2000/svg" xmlns:sodipodi="http://sodipodi.sourceforge.net/DTD/sodipodi-0.dtd" xmlns:inkscape="http://www.inkscape.org/namespaces/inkscape" version="1" width="1200" height="1200" viewBox="0 0 1200 1200" preserveAspectRatio="xMidYMid meet" id="svg4192" inkscape:version="0.91" sodipodi:docname="spot(4).svg"><defs id="defs4244"/><sodipodi:namedview pagecolor="#ffffff" bordercolor="#666666" borderopacity="1" objecttolerance="10" gridtolerance="10" guidetolerance="10" inkscape:pageopacity="0" inkscape:pageshadow="2" inkscape:window-width="1366" inkscape:window-height="716" id="namedview4242" showgrid="false" inkscape:zoom="0.16" inkscape:cx="750" inkscape:cy="750" inkscape:window-x="-8" inkscape:window-y="-8" inkscape:window-maximized="1" inkscape:current-layer="svg4192"/><metadata id="metadata4194">
Created by potrace 1.13, written by Peter Selinger 2001-2015
<rdf:RDF><cc:Work rdf:about=""><dc:format>image/svg+xml</dc:format><dc:type rdf:resource="http://purl.org/dc/dcmitype/StillImage"/></cc:Work></rdf:RDF></metadata><g transform="translate(0.000000,1200.000000) scale(0.100000,-0.100000)" fill="#000000" stroke="none" id="g4196"><path d="m4170 11106c-28.24-324.01 300.94 45.32 0 0z" id="path4198" inkscape:connector-curvature="0"/><path d="m3971 10097c-69.61-342.07 369.4 11.31 0 0z" id="path4200" inkscape:connector-curvature="0"/><path d="m4841 8268c-158.62 36.43-216.83-438.94-247.12-276.5 118.87-255.46 548.2-53.98 383.13 182.5-47.42 18.37-138.71 104.14-136 94z" id="path4202" inkscape:connector-curvature="0"/><path d="m6803 7832c-418.3-101.51 253.64-391.8 87-27l-22.5 25.88-64.5 1.13z" id="path4204" inkscape:connector-curvature="0"/><path d="m7689 7557c2.35-437.03 498.91 10.36 76 7-14.7-70.03-171.65 106.65-76-7z" id="path4206" inkscape:connector-curvature="0"/><path d="m6520 7532c60.4-248.5-307.83-124.69-235.37-395.25 191.6-106.05 391.21-267.77 326.38 81.25-275.54 188.14 363.34 212.09-91 314z" id="path4208" inkscape:connector-curvature="0"/><path d="m6927 7180c-142.23-354.05 466.28-271.31 190 25 12.21-43.69-205.08 59.85-190-25z" id="path4210" inkscape:connector-curvature="0"/><path d="m6340 6974c-34.92-76.95-398.93-254-312-103-24.56-155.99 138.89-369.73 88-260 155.82-98.08 423.43 236.96 349 79 103.45 135.78-124.27 388.97-115 295l-8 0.88-2-11.87z" id="path4212" inkscape:connector-curvature="0"/><path d="m4905 6944c-332.47-184.79 272.66-361.46 128-44-22.19 37.09-88.59 62.81-128 44z" id="path4214" inkscape:connector-curvature="0"/><path d="m4420 6837c-351.41-151.75 253.97-399.73 79-45-11.69 2.57-83.84 74.17-79 45z" id="path4216" inkscape:connector-curvature="0"/><path d="m5424 6814c-115.84-469.04 477.16 58.88 0 0z" id="path4218" inkscape:connector-curvature="0"/><path d="m3900 6718c-123.5-178.82 276.72-359.35-120-336 144.28-88.02-167.96-282.48 54.81-407.2 229 21.55 589.22-176.73 475.08-115.53 119.01-97.93 444.94-182.52 278.73-133.02 29.3 125.9-102.87 7.96 35.38-40.25-107.19-116.56 222.5-73.9-50.37-148.87-109.19-100.67 433.25-16.75 126.63-98.75 240.73-26.71 261.39-345.65 116.38-287 152.75 63.22 596.03 45.22 415.38 8.5 165.71-242.56 462.7 86.26 284 181.13 28.45 320.2 46.67 167.59-35.87 393.63 130.53-51.62 483.24 399.65 109.63 432.38-105.86 154.38-295.35-176.88-320.87-61.62-237-80.43 36.1-45.57-43.87-265.37 38.22-170.3-171 217.19-140 103-118.68-26.57-445.45-55.66-271 47-29.13 166.75-377.22 18.23-245 226 6.6-91.55 254.91-116.07-13.62-95-107.18 163.48-196.03 397.78-180.37 349-100.06-17.17-384.79 102.32-310 131-43.56 44.81-202.43 81.71-165 117z" id="path4220" inkscape:connector-curvature="0"/><path d="m2972 6638c136.68-159.49-190.11-356.92-15-538-60.83-231.49 799.4-218.1 469-116 301.59-181.2 147.2 677.94 214 508-167.9 223.62-742.15 186.58-565 71 31.5 56.48-66.56 106.9-103 75z" id="path4222" inkscape:connector-curvature="0"/><path d="m5952 6508c22.57-169.59-42.74-329.3-58-218-41.6-108.07 140.7-401.61 120-287 114.11 73.22 211.83 0.83 290.94 202.77C6396.11 6063.21 6192.56 6186.78 6236 6373c38.28 181.67-292.38 82.18-284 135z" id="path4224" inkscape:connector-curvature="0"/><path d="M3711 5737C3374.27 5486.95 4051.65 5203.14 4000.36 5589.87 3993.1 5721.77 3824.21 5824 3711 5737Z" id="path4226" inkscape:connector-curvature="0"/><path d="m5693 5708c-280.71-90.4 81.52-245.75-18-310-40.63-194.01 312.77-12.44 265-270 87.41-185.1 424.09-412.77 353-334 99.6-202.04 359.99 17.65 452-250 219.51 158.18 657.01-61.49 479-57.75 141.66 154.85-262.98 33.13-167.37 151.75-14.42 272.37-254.46-104.1-298.62 209-127.09 40.78-329.56 332.43-272 199-81.98-268.3-372.18 12.33-256 99-94.34 215-252.59 511.08-266 335-89.99 67.26-134.08 200.23-271 228z" id="path4228" inkscape:connector-curvature="0"/><path d="m4431 4385c-198.04-344.64 475.94-186.61 129 30l-76.87 10.88L4431 4385Z" id="path4230" inkscape:connector-curvature="0"/><path d="m7756 4338c-25.91-333.78 299.18 91.47 0 0z" id="path4232" inkscape:connector-curvature="0"/><path d="m7980 4206c-300.96-206.05 298.2-229.86 0 0z" id="path4234" inkscape:connector-curvature="0"/><path d="m8462 3955c-92.25-346.11 298.34 53.85 0 0z" id="path4236" inkscape:connector-curvature="0"/><path d="m9255 3045c-63.59-355.91 337 85.27 0 0z" id="path4238" inkscape:connector-curvature="0"/><path d="m10937 2963c-187.33-328.56 344.81-58.43 0 0z" id="path4240" inkscape:connector-curvature="0"/></g></svg>