<svg version="1" xmlns="http://www.w3.org/2000/svg" width="521" height="423" viewBox="0 0 521 423" preserveAspectRatio="xMidYMid meet"> <metadata></metadata><g transform="translate(0.000000,423.000000) scale(0.100000,-0.100000)" fill="#000000" stroke="none"><path d="M1309 3244c39-49 100-120 135-159 35-38 104-118 152-176 159-190 297-352 372-437 40-45 80-98 88-117 8-19 20-35 27-35 7 0 39-31 70-69 47-58 60-82 74-138 36-150 58-217 86-259 16-24 27-49 25-55-5-14-79 107-138 223-51 102-65 112-19 15 67-143 125-236 282-445 115-153 206-253 305-336 79-66 99-96 143-222 17-49 40-105 51-124 10-19 16-26 12-15-4 11-22 61-40 112-54 152-1 126 81-38 53-107 97-185 112-200 8-8 20-5 41 11 24 18 38 21 64 16 18-4 70-10 115-13 60-4 83-9 87-20 10-26-18-66-69-97-39-24-64-31-115-34-62-4-68-2-110 29-24 19-62 61-84 95-23 33-47 69-54 80-7 10 1-8 19-41 33-63 80-128 114-158 64-57 118-59 225-10 36 17 78 33 94 37 15 4 63 40 105 80 42 40 108 90 146 111 115 62 166 96 255 170 154 128 182 147 208 140 18-4 23-3 19 8-7 18-1 26 50 65 49 39 173 97 224 106 42 7 62 27 57 53-5 29-37 27-77-5-58-47-162-97-194-94-20 3-43-8-80-36-98-75-177-117-177-94 0 14 131 165 196 227 67 63 81 99 48 125-31 27-64 1-108-85-42-82-91-152-200-282-53-64-69-77-131-102-38-16-104-39-145-50l-75-21-20 27c-11 16-97 106-192 200-95 95-173 177-173 183 0 28 28 54 132 125 62 43 155 112 206 154 52 42 124 101 161 131 37 30 128 110 202 176 151 136 296 259 381 322 86 63 106 102 72 136-34 35-65 20-155-72-48-48-111-119-142-158-70-89-336-331-525-478-101-78-354-244-384-251-20-5-35 8-108 96-47 57-104 129-128 161-23 32-45 58-47 58-8 0 69-104 163-219 66-80 83-107 76-119-14-21-107-73-149-82-32-7-35-6-51 29-10 20-18 55-19 78-1 24-8 49-15 58-14 17-39 157-40 218 0 24 5 40 15 43 11 5 12 11 5 24-13 24-13 60 1 99 14 38 38 40 94 6 46-28 64-31 90-12 17 13 17 16-11 66-18 34-55 75-106 118-76 65-78 67-72 102 4 19 20 57 36 84 29 50 36 73 17 61-6-3-14-1-18 5-11 17-53-75-59-128-6-58-18-74-54-69-30 5-31 7 21-57 23-29 23-34 17-139-4-60-1-188 5-285 11-165 13-177 35-198 27-25 32-68 9-77-12-4-15 4-16 37-2 34-3 36-6 12-7-45-18-50-50-20-15 14-46 36-68 47-63 32-119 83-195 173-93 111-148 194-188 282-32 71-34 93-8 93 19 0 118-117 152-179 44-83 116-114 172-75 49 34 17 92-83 151-37 22-115 88-184 155-135 132-148 156-138 263 5 51 2 68-19 111-34 69-27 115 20 132 18 7 44 24 59 39 22 24 25 34 20 69l-5 42-52-14c-67-18-90-45-82-99 4-22 8-69 9-105 2-37 11-79 20-97 20-37 14-105-10-125-12-9-25 1-76 57-66 72-107 128-107 143 0 6-6 9-13 8-8 0-52 44-98 100-50 59-90 99-98 96-8-3-12 1-9 9 6 16-50 91-62 84-14-9-312 344-306 362 9 21-11 42-33 36-14-3-33 14-75 65-31 39-61 74-67 78-6 4 21-33 60-82zm1929-1939c27-33 78-93 112-134 86-101 110-139 110-171 0-36-22-41-153-39-116 2-163 20-249 97-52 47-112 159-101 188 3 8 29 26 57 41 28 14 65 36 83 49 38 29 76 44 84 35 4-3 29-33 57-66zm843-154c-19-14-71-57-115-94-105-89-199-152-204-137-9 25 140 154 242 212 103 58 138 67 77 19zm-301-146c0-8-31-39-69-70-51-41-90-63-156-86-105-36-145-40-251-25-102 15-191 66-178 101 9 23 24 18 89-25 48-34 66-40 99-38 51 4 72 33 39 55-43 29-26 35 85 32 74-3 113 0 123 8 8 6 43 18 79 27 36 8 76 19 90 25 36 14 50 13 50-4z"/></g></svg>